{
  "accessors": [
    {
      "bufferView": 1,
      "componentType": 5126,
      "count": 960,
      "max": [
        1.0,
        1.0,
        1.0
      ],
      "min": [
        -1.0,
        -1.0,
        -1.0
      ],
      "type": "VEC3"
    },
    {
      "bufferView": 1,
      "byteOffset": 11520,
      "componentType": 5126,
      "count": 960,
      "max": [
        0.9854128956794739,
        0.9846500158309937,
        0.9877862334251404
      ],
      "min": [
        -0.9854128956794739,
        -0.9846500158309937,
        -0.9877862334251404
      ],
      "type": "VEC3"
    },
    {
      "bufferView": 0,
      "componentType": 5125,
      "count": 960,
      "type": "SCALAR"
    },
    {
      "bufferView": 1,
      "byteOffset": 23040,
      "componentType": 5126,
      "count": 3611,
      "max": [
        1.010159969329834,
        1.002079963684082,
        0.9970099925994873
      ],
      "min": [
        -0.635129988193512,
        -1.010159969329834,
        -0.7177199721336365
      ],
      "type": "VEC3"
    },
    {
      "bufferView": 1,
      "byteOffset": 66372,
      "componentType": 5126,
      "count": 3611,
      "max": [
        0.9994654655456543,
        0.9895248413085938,
        0.9938753247261047
      ],
      "min": [
        -0.9987646341323853,
        -0.9994592666625977,
        -0.9974340796470642
      ],
      "type": "VEC3"
    },
    {
      "bufferView": 0,
      "byteOffset": 3840,
      "componentType": 5125,
      "count": 4890,
      "type": "SCALAR"
    },
    {
      "bufferView": 1,
      "byteOffset": 109704,
      "componentType": 5126,
      "count": 472,
      "max": [
        0.3105199933052063,
        0.37112000584602356,
        1.010159969329834
      ],
      "min": [
        -0.3564299941062927,
        -0.5761200189590454,
        -1.010159969329834
      ],
      "type": "VEC3"
    },
    {
      "bufferView": 1,
      "byteOffset": 115368,
      "componentType": 5126,
      "count": 472,
      "max": [
        0.9993289113044739,
        0.9824184775352478,
        0.9878972172737122
      ],
      "min": [
        -0.9717274308204651,
        -0.9971274733543396,
        -0.9881492853164673
      ],
      "type": "VEC3"
    },
    {
      "bufferView": 0,
      "byteOffset": 23400,
      "componentType": 5125,
      "count": 654,
      "type": "SCALAR"
    }
  ],
  "asset": {
    "extras": {
      "author": "Konstantin_Keller (https://sketchfab.com/Konstantin_Keller)",
      "license": "CC-BY-4.0 (http://creativecommons.org/licenses/by/4.0/)",
      "source": "https://sketchfab.com/3d-models/low-poly-earth-c99483d5e2a94ca8b4f3579145584beb",
      "title": "Low Poly Earth"
    },
    "generator": "Sketchfab-12.67.0",
    "version": "2.0"
  },
  "bufferViews": [
    {
      "buffer": 0,
      "byteLength": 26016,
      "name": "floatBufferViews",
      "target": 34963
    },
    {
      "buffer": 0,
      "byteLength": 121032,
      "byteOffset": 26016,
      "byteStride": 12,
      "name": "floatBufferViews",
      "target": 34962
    }
  ],
  "buffers": [
    {
      "byteLength": 147048,
      "uri": "scene.bin"
    }
  ],
  "materials": [
    {
      "doubleSided": true,
      "name": "material",
      "pbrMetallicRoughness": {
        "baseColorFactor": [
          0.00911752413958311,
          0.04444726184010506,
          0.6981865763664246,
          1.0
        ],
        "metallicFactor": 0.0,
        "roughnessFactor": 0.6
      }
    },
    {
      "doubleSided": true,
      "name": "green",
      "pbrMetallicRoughness": {
        "baseColorFactor": [
          0.04114942252635956,
          0.6382656097412109,
          0.00858752615749836,
          1.0
        ],
        "metallicFactor": 0.0,
        "roughnessFactor": 0.6
      }
    },
    {
      "doubleSided": true,
      "name": "white",
      "pbrMetallicRoughness": {
        "baseColorFactor": [
          0.800000011920929,
          0.800000011920929,
          0.800000011920929,
          1.0
        ],
        "metallicFactor": 0.0,
        "roughnessFactor": 0.6
      }
    }
  ],
  "meshes": [
    {
      "name": "Icosphere.001_0",
      "primitives": [
        {
          "attributes": {
            "NORMAL": 1,
            "POSITION": 0
          },
          "indices": 2,
          "material": 0,
          "mode": 4
        }
      ]
    },
    {
      "name": "Icosphere.001_1",
      "primitives": [
        {
          "attributes": {
            "NORMAL": 4,
            "POSITION": 3
          },
          "indices": 5,
          "material": 1,
          "mode": 4
        }
      ]
    },
    {
      "name": "Icosphere.001_2",
      "primitives": [
        {
          "attributes": {
            "NORMAL": 7,
            "POSITION": 6
          },
          "indices": 8,
          "material": 2,
          "mode": 4
        }
      ]
    }
  ],
  "nodes": [
    {
      "children": [
        1
      ],
      "matrix": [
        1.0,
        0.0,
        0.0,
        0.0,
        0.0,
        2.220446049250313e-16,
        -1.0,
        0.0,
        0.0,
        1.0,
        2.220446049250313e-16,
        0.0,
        0.0,
        0.0,
        0.0,
        1.0
      ],
      "name": "Sketchfab_model"
    },
    {
      "children": [
        2
      ],
      "name": "Root"
    },
    {
      "children": [
        3,
        4,
        5
      ],
      "name": "Icosphere.001"
    },
    {
      "mesh": 0,
      "name": "Icosphere.001_0"
    },
    {
      "mesh": 1,
      "name": "Icosphere.001_1"
    },
    {
      "mesh": 2,
      "name": "Icosphere.001_2"
    }
  ],
  "scene": 0,
  "scenes": [
    {
      "name": "Sketchfab_Scene",
      "nodes": [
        0
      ]
    }
  ]
}
